<svg width="99" height="99" viewBox="0 0 99 99" fill="none" xmlns="http://www.w3.org/2000/svg">
<path fill-rule="evenodd" clip-rule="evenodd" d="M66 37.125C66 41.5011 64.2616 45.6979 61.1673 48.7923C58.0729 51.8866 53.8761 53.625 49.5 53.625C45.1239 53.625 40.9271 51.8866 37.8327 48.7923C34.7384 45.6979 33 41.5011 33 37.125C33 32.7489 34.7384 28.5521 37.8327 25.4577C40.9271 22.3634 45.1239 20.625 49.5 20.625C53.8761 20.625 58.0729 22.3634 61.1673 25.4577C64.2616 28.5521 66 32.7489 66 37.125ZM57.75 37.125C57.75 39.313 56.8808 41.4115 55.3336 42.9586C53.7865 44.5058 51.688 45.375 49.5 45.375C47.312 45.375 45.2135 44.5058 43.6664 42.9586C42.1192 41.4115 41.25 39.313 41.25 37.125C41.25 34.937 42.1192 32.8385 43.6664 31.2914C45.2135 29.7442 47.312 28.875 49.5 28.875C51.688 28.875 53.7865 29.7442 55.3336 31.2914C56.8808 32.8385 57.75 34.937 57.75 37.125Z" fill="white"/>
<path fill-rule="evenodd" clip-rule="evenodd" d="M49.5 4.125C24.4406 4.125 4.125 24.4406 4.125 49.5C4.125 74.5594 24.4406 94.875 49.5 94.875C74.5594 94.875 94.875 74.5594 94.875 49.5C94.875 24.4406 74.5594 4.125 49.5 4.125ZM12.375 49.5C12.375 58.1213 15.3161 66.0578 20.2455 72.3607C23.7073 67.8146 28.1733 64.1303 33.2947 61.5958C38.416 59.0612 44.0539 57.745 49.7681 57.75C55.4084 57.7446 60.9754 59.0268 66.0451 61.4987C71.1148 63.9707 75.5534 67.5672 79.0226 72.0143C82.5967 67.3266 85.0032 61.8553 86.0429 56.0529C87.0827 50.2506 86.7258 44.2841 85.0018 38.6471C83.2778 33.01 80.2363 27.8646 76.1289 23.6364C72.0215 19.4082 66.9663 16.2189 61.3816 14.3323C55.7969 12.4458 49.8432 11.9162 44.0132 12.7874C38.1832 13.6586 32.6444 15.9056 27.8552 19.3423C23.066 22.7791 19.164 27.307 16.4721 32.5512C13.7802 37.7954 12.3757 43.6052 12.375 49.5ZM49.5 86.625C40.9775 86.6378 32.7123 83.7059 26.103 78.3255C28.7633 74.517 32.3043 71.4075 36.4245 69.2616C40.5448 67.1156 45.1225 65.9967 49.7681 66C54.3558 65.9963 58.8781 67.0872 62.9596 69.1821C67.041 71.277 70.5638 74.3154 73.2353 78.045C66.5746 83.6002 58.1732 86.6372 49.5 86.625Z" fill="white"/>
</svg>
