<svg width="863" height="803" viewBox="0 0 863 803" fill="none" xmlns="http://www.w3.org/2000/svg">
<g filter="url(#filter0_d_314_646)">
<rect x="350.442" y="15.4312" width="408" height="564" rx="15" transform="rotate(30 350.442 15.4312)" fill="#F8F8F8"/>
</g>
<g clip-path="url(#clip0_314_646)">
<path d="M363.646 128.33C363.883 126.297 363.721 124.237 363.169 122.266C362.619 120.291 361.694 118.439 360.445 116.813C359.151 115.124 357.535 113.708 355.69 112.648C353.105 111.156 350.174 110.408 347.21 110.479C346.501 110.496 345.8 110.56 345.107 110.67C344.856 110.015 344.561 109.376 344.221 108.754C342.802 106.151 340.688 103.987 338.103 102.495C336.242 101.42 334.232 100.735 332.119 100.459C330.079 100.19 328.029 100.314 326.034 100.826C324.051 101.332 322.185 102.222 320.544 103.445C318.838 104.718 317.427 106.302 316.358 108.153C315.35 109.899 314.656 111.924 314.295 114.184C313.995 116.073 313.918 118.168 314.068 120.415C314.307 123.972 315.128 128.011 316.5 132.417C318.771 139.721 321.798 145.607 321.93 145.851L322.712 147.365C323.06 148.034 323.768 148.443 324.521 148.41L326.224 148.33C326.504 148.317 333.107 147.997 340.573 146.316C345.074 145.3 348.983 143.992 352.183 142.42C354.204 141.427 355.985 140.316 357.465 139.108C359.242 137.666 360.649 136.052 361.657 134.306C362.731 132.458 363.397 130.445 363.646 128.33Z" fill="#E30000"/>
</g>
<g clip-path="url(#clip1_314_646)">
<path d="M406.379 586.775C406.143 588.808 406.305 590.868 406.856 592.839C407.407 594.814 408.332 596.665 409.581 598.292C410.874 599.981 412.49 601.397 414.335 602.456C416.92 603.949 419.851 604.697 422.815 604.625C423.524 604.608 424.225 604.545 424.918 604.434C425.169 605.089 425.464 605.728 425.804 606.351C427.224 608.954 429.337 611.118 431.922 612.61C433.784 613.685 435.793 614.37 437.906 614.646C439.946 614.915 441.996 614.791 443.991 614.278C445.975 613.773 447.84 612.883 449.481 611.659C451.188 610.386 452.598 608.803 453.667 606.952C454.675 605.206 455.369 603.181 455.73 600.921C456.03 599.032 456.107 596.937 455.957 594.69C455.718 591.133 454.897 587.094 453.526 582.687C451.254 575.384 448.228 569.498 448.096 569.254L447.313 567.74C446.965 567.07 446.258 566.662 445.504 566.695L443.801 566.775C443.521 566.788 436.918 567.107 429.453 568.789C424.951 569.804 421.042 571.113 417.842 572.684C415.821 573.678 414.04 574.789 412.56 575.997C410.783 577.439 409.376 579.053 408.368 580.799C407.294 582.647 406.628 584.66 406.379 586.775Z" fill="#E30000"/>
</g>
<path d="M369.243 94.053L365.587 100.386L344.613 88.2764L348.269 81.9436L369.243 94.053ZM370.015 50.4035L347.265 89.8077L339.146 85.1202L361.896 45.716L370.015 50.4035ZM376.338 75.452L372.776 81.6225L354.535 71.0912L358.097 64.9208L376.338 75.452ZM388.31 60.966L384.638 67.3259L363.691 55.2321L367.363 48.8723L388.31 60.966Z" fill="#2C0000"/>
<path d="M400.782 621.052L404.438 614.719L425.412 626.828L421.756 633.161L400.782 621.052ZM400.01 664.701L422.76 625.297L430.879 629.985L408.129 669.389L400.01 664.701ZM393.687 639.653L397.25 633.482L415.49 644.014L411.928 650.184L393.687 639.653ZM381.715 654.139L385.387 647.779L406.334 659.873L402.662 666.232L381.715 654.139Z" fill="#2C0000"/>
<path d="M404.375 447.359L387.922 475.857L293.539 421.365L309.992 392.867L404.375 447.359ZM407.849 250.936L305.474 428.255L268.938 407.161L371.313 229.843L407.849 250.936ZM436.301 363.655L420.27 391.422L338.187 344.031L354.218 316.264L436.301 363.655ZM490.175 298.468L473.652 327.087L379.39 272.665L395.914 244.046L490.175 298.468Z" fill="#2C0000"/>
<g filter="url(#filter1_d_314_646)">
<rect x="203.134" y="95.0171" width="408" height="564" rx="15" transform="rotate(15.6384 203.134 95.0171)" fill="#F8F8F8"/>
</g>
<g clip-path="url(#clip2_314_646)">
<path d="M243.929 201.113C243.654 199.084 242.987 197.129 241.963 195.356C240.94 193.579 239.585 192.015 237.971 190.749C236.299 189.434 234.383 188.463 232.332 187.894C229.458 187.09 226.433 187.092 223.58 187.896C222.897 188.089 222.234 188.324 221.59 188.603C221.184 188.031 220.74 187.485 220.256 186.966C218.235 184.797 215.651 183.225 212.777 182.42C210.707 181.841 208.59 181.676 206.475 181.933C204.432 182.178 202.477 182.806 200.671 183.797C198.875 184.779 197.289 186.104 196.002 187.696C194.665 189.353 193.691 191.237 193.115 193.295C192.571 195.237 192.401 197.371 192.612 199.649C192.79 201.554 193.235 203.602 193.937 205.742C195.052 209.128 196.849 212.838 199.27 216.766C203.282 223.278 207.674 228.229 207.862 228.433L208.996 229.706C209.499 230.268 210.286 230.488 211.008 230.269L212.638 229.77C212.906 229.688 219.223 227.74 226.038 224.26C230.147 222.159 233.609 219.922 236.32 217.606C238.031 216.142 239.481 214.624 240.615 213.087C241.979 211.249 242.941 209.337 243.485 207.395C244.067 205.339 244.213 203.223 243.929 201.113Z" fill="#E30000"/>
</g>
<g clip-path="url(#clip3_314_646)">
<path d="M399.04 634.631C399.315 636.659 399.983 638.615 401.006 640.387C402.029 642.165 403.385 643.729 404.998 644.994C406.67 646.31 408.587 647.28 410.637 647.849C413.512 648.654 416.537 648.652 419.39 647.847C420.072 647.655 420.736 647.419 421.38 647.14C421.785 647.713 422.23 648.259 422.713 648.778C424.734 650.947 427.318 652.519 430.193 653.323C432.263 653.903 434.379 654.068 436.495 653.811C438.538 653.566 440.493 652.937 442.298 651.946C444.095 650.964 445.681 649.64 446.967 648.047C448.305 646.391 449.279 644.507 449.855 642.449C450.398 640.507 450.568 638.373 450.357 636.094C450.18 634.19 449.735 632.141 449.032 630.002C447.918 626.615 446.121 622.906 443.699 618.977C439.687 612.466 435.295 607.514 435.107 607.311L433.973 606.038C433.47 605.476 432.683 605.255 431.962 605.474L430.332 605.974C430.064 606.056 423.747 608.004 416.931 611.484C412.822 613.584 409.36 615.822 406.65 618.138C404.939 619.602 403.489 621.12 402.354 622.657C400.991 624.495 400.028 626.407 399.485 628.349C398.903 630.405 398.757 632.521 399.04 634.631Z" fill="#E30000"/>
</g>
<path d="M238.945 157.905L247.943 160.424C246.937 163.322 245.391 165.713 243.307 167.596C241.242 169.484 238.746 170.711 235.819 171.276C232.911 171.846 229.662 171.629 226.071 170.624C223.262 169.838 220.879 168.651 218.922 167.065C216.97 165.459 215.458 163.521 214.384 161.252C213.33 158.988 212.754 156.447 212.656 153.629C212.558 150.81 212.958 147.796 213.857 144.586L214.707 141.547C215.606 138.337 216.839 135.556 218.406 133.204C219.999 130.837 221.843 128.963 223.939 127.581C226.055 126.204 228.364 125.336 230.866 124.977C233.368 124.617 235.993 124.822 238.742 125.591C242.393 126.613 245.287 128.138 247.425 130.164C249.582 132.195 251.027 134.569 251.76 137.283C252.512 140.004 252.614 142.888 252.063 145.935L243.036 143.408C243.429 141.615 243.497 140.022 243.237 138.63C242.984 137.217 242.332 136.029 241.282 135.064C240.258 134.085 238.743 133.315 236.737 132.754C235.232 132.332 233.84 132.245 232.559 132.493C231.278 132.74 230.097 133.329 229.014 134.259C227.932 135.189 226.956 136.473 226.086 138.112C225.242 139.736 224.494 141.712 223.843 144.039L222.975 147.139C222.34 149.406 221.952 151.45 221.81 153.27C221.674 155.071 221.791 156.662 222.162 158.042C222.558 159.408 223.234 160.549 224.189 161.465C225.17 162.367 226.463 163.043 228.068 163.492C229.953 164.02 231.592 164.154 232.985 163.895C234.377 163.636 235.56 163.004 236.533 162C237.527 161.002 238.331 159.637 238.945 157.905Z" fill="#2C0000"/>
<path d="M404.025 677.839L395.027 675.32C396.033 672.422 397.578 670.031 399.663 668.148C401.727 666.26 404.223 665.033 407.151 664.468C410.058 663.897 413.307 664.114 416.898 665.12C419.707 665.906 422.09 667.092 424.048 668.679C425.999 670.285 427.512 672.223 428.586 674.492C429.64 676.756 430.216 679.297 430.314 682.115C430.412 684.933 430.012 687.947 429.113 691.157L428.262 694.197C427.364 697.407 426.131 700.188 424.564 702.54C422.971 704.907 421.127 706.781 419.031 708.163C416.915 709.539 414.606 710.407 412.104 710.767C409.601 711.127 406.976 710.922 404.228 710.152C400.576 709.13 397.682 707.606 395.545 705.58C393.388 703.548 391.943 701.175 391.21 698.46C390.457 695.74 390.356 692.856 390.906 689.808L399.934 692.335C399.54 694.129 399.473 695.722 399.732 697.114C399.986 698.526 400.638 699.715 401.687 700.679C402.711 701.658 404.226 702.429 406.233 702.99C407.737 703.411 409.13 703.498 410.411 703.251C411.691 703.004 412.873 702.415 413.955 701.485C415.038 700.555 416.014 699.27 416.884 697.632C417.728 696.007 418.476 694.032 419.127 691.705L419.995 688.605C420.629 686.338 421.018 684.294 421.16 682.473C421.296 680.672 421.179 679.082 420.808 677.702C420.411 676.336 419.735 675.195 418.78 674.279C417.8 673.377 416.507 672.701 414.902 672.252C413.016 671.724 411.377 671.59 409.985 671.849C408.593 672.108 407.41 672.74 406.436 673.744C405.443 674.742 404.639 676.107 404.025 677.839Z" fill="#2C0000"/>
<path d="M353.946 461.308L394.437 472.643C389.909 485.687 382.955 496.445 373.574 504.917C364.283 513.414 353.051 518.935 339.878 521.478C326.795 524.046 312.173 523.069 296.013 518.545C283.374 515.007 272.651 509.669 263.843 502.53C255.06 495.301 248.252 486.581 243.42 476.369C238.678 466.182 236.086 454.748 235.645 442.065C235.203 429.383 237.004 415.82 241.048 401.375L244.877 387.698C248.92 373.253 254.468 360.738 261.52 350.154C268.687 339.504 276.986 331.07 286.418 324.851C295.94 318.657 306.331 314.751 317.59 313.132C328.85 311.514 340.664 312.436 353.032 315.898C369.463 320.497 382.487 327.356 392.104 336.473C401.811 345.616 408.314 356.295 411.611 368.512C414.999 380.753 415.455 393.731 412.979 407.447L372.353 396.074C374.126 388.003 374.428 380.835 373.262 374.57C372.12 368.215 369.188 362.867 364.464 358.526C359.856 354.121 353.038 350.655 344.01 348.128C337.239 346.232 330.972 345.841 325.209 346.954C319.445 348.066 314.128 350.715 309.257 354.901C304.386 359.087 299.993 364.866 296.079 372.241C292.281 379.55 288.916 388.44 285.984 398.913L282.08 412.861C279.224 423.063 277.477 432.26 276.838 440.454C276.225 448.557 276.753 455.715 278.422 461.926C280.206 468.072 283.247 473.206 287.544 477.33C291.957 481.389 297.775 484.429 304.997 486.451C313.484 488.826 320.859 489.43 327.125 488.264C333.39 487.097 338.712 484.255 343.092 479.737C347.563 475.244 351.181 469.101 353.946 461.308Z" fill="#2C0000"/>
<g filter="url(#filter2_d_314_646)">
<rect x="68.082" y="238.616" width="408" height="564" rx="15" transform="rotate(-10.164 68.082 238.616)" fill="#F8F8F8"/>
</g>
<g clip-path="url(#clip4_314_646)">
<path d="M150.99 316.377C149.86 314.67 148.407 313.201 146.714 312.05C145.02 310.895 143.119 310.077 141.115 309.64C139.037 309.183 136.889 309.144 134.796 309.524C131.858 310.051 129.135 311.369 126.917 313.336C126.386 313.806 125.891 314.307 125.433 314.838C124.818 314.499 124.181 314.201 123.52 313.945C120.756 312.872 117.745 312.581 114.807 313.108C112.691 313.487 110.714 314.26 108.921 315.412C107.189 316.522 105.702 317.939 104.508 319.617C103.318 321.283 102.466 323.166 102.002 325.159C101.518 327.233 101.462 329.353 101.839 331.457C102.195 333.441 102.971 335.437 104.152 337.396C105.141 339.033 106.433 340.684 107.997 342.304C110.474 344.868 113.707 347.426 117.597 349.909C124.043 354.024 130.153 356.571 130.411 356.672L131.986 357.325C132.683 357.612 133.488 357.468 134.042 356.956L135.292 355.797C135.497 355.606 140.337 351.103 144.958 345.003C147.743 341.324 149.886 337.803 151.318 334.538C152.222 332.475 152.866 330.477 153.218 328.599C153.646 326.351 153.68 324.211 153.324 322.226C152.953 320.121 152.164 318.153 150.99 316.377Z" fill="#E30000"/>
</g>
<g clip-path="url(#clip5_314_646)">
<path d="M479.334 639.158C480.464 640.865 481.917 642.335 483.609 643.485C485.304 644.64 487.205 645.458 489.209 645.895C491.287 646.352 493.435 646.391 495.528 646.011C498.466 645.484 501.189 644.166 503.407 642.199C503.938 641.729 504.433 641.228 504.891 640.697C505.505 641.036 506.143 641.334 506.804 641.59C509.568 642.664 512.579 642.954 515.517 642.427C517.633 642.048 519.61 641.275 521.403 640.123C523.135 639.013 524.622 637.596 525.816 635.918C527.006 634.253 527.857 632.369 528.322 630.376C528.805 628.302 528.862 626.182 528.485 624.079C528.129 622.094 527.353 620.099 526.171 618.139C525.183 616.502 523.89 614.851 522.327 613.231C519.849 610.667 516.617 608.109 512.727 605.627C506.281 601.511 500.171 598.964 499.913 598.863L498.338 598.21C497.641 597.923 496.836 598.068 496.282 598.579L495.032 599.738C494.826 599.929 489.987 604.432 485.366 610.532C482.581 614.211 480.438 617.733 479.006 620.997C478.102 623.06 477.458 625.058 477.106 626.936C476.678 629.184 476.644 631.324 476.999 633.309C477.371 635.414 478.16 637.382 479.334 639.158Z" fill="#E30000"/>
</g>
<path d="M115.952 258.766L110.427 298.077L100.615 299.836L109.226 252.066L115.471 250.947L115.952 258.766ZM132.728 294.079L113.86 259.141L111.503 251.658L117.808 250.528L142.571 292.314L132.728 294.079ZM129.185 277.506L130.481 284.735L106.827 288.975L105.531 281.747L129.185 277.506Z" fill="#2C0000"/>
<path d="M514.372 696.769L519.897 657.459L529.709 655.699L521.097 703.469L514.853 704.588L514.372 696.769ZM497.596 661.457L516.464 696.394L518.821 703.877L512.515 705.007L487.753 663.221L497.596 661.457ZM501.139 678.029L499.843 670.801L523.497 666.56L524.793 673.788L501.139 678.029Z" fill="#2C0000"/>
<path d="M310.446 408.783L285.585 585.68L241.429 593.597L280.182 378.635L308.281 373.597L310.446 408.783ZM385.938 567.689L301.033 410.47L290.425 376.798L318.8 371.711L430.231 559.748L385.938 567.689ZM369.996 493.113L375.828 525.641L269.384 544.725L263.553 512.196L369.996 493.113Z" fill="#2C0000"/>
<defs>
<filter id="filter0_d_314_646" x="62.9294" y="13.9189" width="642.363" height="699.462" filterUnits="userSpaceOnUse" color-interpolation-filters="sRGB">
<feFlood flood-opacity="0" result="BackgroundImageFix"/>
<feColorMatrix in="SourceAlpha" type="matrix" values="0 0 0 0 0 0 0 0 0 0 0 0 0 0 0 0 0 0 127 0" result="hardAlpha"/>
<feMorphology radius="2" operator="dilate" in="SourceAlpha" result="effect1_dropShadow_314_646"/>
<feOffset dx="-2" dy="2"/>
<feGaussianBlur stdDeviation="3.5"/>
<feComposite in2="hardAlpha" operator="out"/>
<feColorMatrix type="matrix" values="0 0 0 0 0 0 0 0 0 0 0 0 0 0 0 0 0 0 0.25 0"/>
<feBlend mode="normal" in2="BackgroundImageFix" result="effect1_dropShadow_314_646"/>
<feBlend mode="normal" in="SourceGraphic" in2="effect1_dropShadow_314_646" result="shape"/>
</filter>
<filter id="filter1_d_314_646" x="43.5835" y="91.5015" width="555.963" height="664.136" filterUnits="userSpaceOnUse" color-interpolation-filters="sRGB">
<feFlood flood-opacity="0" result="BackgroundImageFix"/>
<feColorMatrix in="SourceAlpha" type="matrix" values="0 0 0 0 0 0 0 0 0 0 0 0 0 0 0 0 0 0 127 0" result="hardAlpha"/>
<feMorphology radius="2" operator="dilate" in="SourceAlpha" result="effect1_dropShadow_314_646"/>
<feOffset dx="-2" dy="2"/>
<feGaussianBlur stdDeviation="3.5"/>
<feComposite in2="hardAlpha" operator="out"/>
<feColorMatrix type="matrix" values="0 0 0 0 0 0 0 0 0 0 0 0 0 0 0 0 0 0 0.25 0"/>
<feBlend mode="normal" in2="BackgroundImageFix" result="effect1_dropShadow_314_646"/>
<feBlend mode="normal" in="SourceGraphic" in2="effect1_dropShadow_314_646" result="shape"/>
</filter>
<filter id="filter2_d_314_646" x="59.4911" y="162.026" width="514.306" height="640.329" filterUnits="userSpaceOnUse" color-interpolation-filters="sRGB">
<feFlood flood-opacity="0" result="BackgroundImageFix"/>
<feColorMatrix in="SourceAlpha" type="matrix" values="0 0 0 0 0 0 0 0 0 0 0 0 0 0 0 0 0 0 127 0" result="hardAlpha"/>
<feMorphology radius="2" operator="dilate" in="SourceAlpha" result="effect1_dropShadow_314_646"/>
<feOffset dx="-2" dy="2"/>
<feGaussianBlur stdDeviation="3.5"/>
<feComposite in2="hardAlpha" operator="out"/>
<feColorMatrix type="matrix" values="0 0 0 0 0 0 0 0 0 0 0 0 0 0 0 0 0 0 0.25 0"/>
<feBlend mode="normal" in2="BackgroundImageFix" result="effect1_dropShadow_314_646"/>
<feBlend mode="normal" in="SourceGraphic" in2="effect1_dropShadow_314_646" result="shape"/>
</filter>
<clipPath id="clip0_314_646">
<rect width="62" height="62" fill="white" transform="translate(323.834 85.5171) rotate(30)"/>
</clipPath>
<clipPath id="clip1_314_646">
<rect width="62" height="62" fill="white" transform="translate(446.191 629.587) rotate(-150)"/>
</clipPath>
<clipPath id="clip2_314_646">
<rect width="62" height="62" fill="white" transform="translate(194.742 169.512) rotate(15.6384)"/>
</clipPath>
<clipPath id="clip3_314_646">
<rect width="62" height="62" fill="white" transform="translate(448.227 666.231) rotate(-164.362)"/>
</clipPath>
<clipPath id="clip4_314_646">
<rect width="62" height="62" fill="white" transform="translate(92.9523 309.337) rotate(-10.164)"/>
</clipPath>
<clipPath id="clip5_314_646">
<rect width="62" height="62" fill="white" transform="translate(537.372 646.198) rotate(169.836)"/>
</clipPath>
</defs>
</svg>
