<svg width="107" height="105" viewBox="0 0 107 105" fill="none" xmlns="http://www.w3.org/2000/svg">
<path d="M74.3423 86.415L71.5156 63.9975C71.1151 60.8222 69.5572 57.9013 67.135 55.784C64.7129 53.6666 61.5932 52.4988 58.3628 52.5H48.6285C45.3995 52.5009 42.2821 53.6697 39.8617 55.7869C37.4414 57.904 35.8848 60.8237 35.4845 63.9975L32.6534 86.415C32.498 87.6466 32.6089 88.8969 32.9788 90.0828C33.3486 91.2687 33.969 92.363 34.7986 93.2932C35.6282 94.2234 36.6481 94.9681 37.7905 95.4779C38.933 95.9877 40.1719 96.2509 41.4249 96.25H65.5752C66.8279 96.2503 68.0662 95.9866 69.2082 95.4766C70.3501 94.9665 71.3694 94.2217 72.1986 93.2916C73.0277 92.3615 73.6476 91.2673 74.0172 90.0817C74.3868 88.8961 74.4976 87.6462 74.3423 86.415V86.415Z" stroke="white" stroke-width="8" stroke-linecap="round" stroke-linejoin="round"/>
<path d="M53.5 35C60.8178 35 66.75 29.1237 66.75 21.875C66.75 14.6263 60.8178 8.75 53.5 8.75C46.1822 8.75 40.25 14.6263 40.25 21.875C40.25 29.1237 46.1822 35 53.5 35Z" stroke="white" stroke-width="8"/>
<path d="M18.1666 48.125C23.0451 48.125 26.9999 44.2075 26.9999 39.375C26.9999 34.5425 23.0451 30.625 18.1666 30.625C13.2881 30.625 9.33325 34.5425 9.33325 39.375C9.33325 44.2075 13.2881 48.125 18.1666 48.125Z" stroke="white" stroke-width="8"/>
<path d="M88.8333 48.125C93.7119 48.125 97.6667 44.2075 97.6667 39.375C97.6667 34.5425 93.7119 30.625 88.8333 30.625C83.9548 30.625 80 34.5425 80 39.375C80 44.2075 83.9548 48.125 88.8333 48.125Z" stroke="white" stroke-width="8"/>
<path d="M88.8333 61.25H90.1848C92.2759 61.2497 94.2992 61.9843 95.8948 63.3229C97.4904 64.6616 98.5549 66.5175 98.8989 68.5606L100.37 77.3106C100.581 78.5643 100.514 79.8484 100.173 81.0737C99.8321 82.299 99.226 83.4361 98.3966 84.4058C97.5673 85.3756 96.5346 86.1547 95.3705 86.6891C94.2063 87.2234 92.9386 87.5001 91.6556 87.5H75.5833M18.1667 61.25H16.8152C14.7242 61.2497 12.7008 61.9843 11.1052 63.3229C9.50957 64.6616 8.44507 66.5175 8.1011 68.5606L6.63035 77.3106C6.41928 78.5643 6.48646 79.8484 6.82719 81.0737C7.16793 82.299 7.77405 83.4361 8.60339 84.4058C9.43274 85.3756 10.4654 86.1547 11.6295 86.6891C12.7937 87.2234 14.0614 87.5001 15.3444 87.5H31.4167L18.1667 61.25Z" stroke="white" stroke-width="8" stroke-linecap="round" stroke-linejoin="round"/>
</svg>
