<svg width="101" height="102" viewBox="0 0 101 102" fill="none" xmlns="http://www.w3.org/2000/svg">
<path d="M39.9792 42.5832C41.9135 42.5832 43.8288 42.2022 45.6159 41.462C47.4029 40.7218 49.0266 39.6368 50.3943 38.2691C51.7621 36.9014 52.847 35.2776 53.5872 33.4906C54.3274 31.7036 54.7084 29.7883 54.7084 27.854C54.7084 25.9197 54.3274 24.0044 53.5872 22.2174C52.847 20.4304 51.7621 18.8066 50.3943 17.4389C49.0266 16.0712 47.4029 14.9862 45.6159 14.246C43.8288 13.5058 41.9135 13.1248 39.9792 13.1248C36.0728 13.1248 32.3264 14.6767 29.5642 17.4389C26.8019 20.2012 25.2501 23.9476 25.2501 27.854C25.2501 31.7604 26.8019 35.5068 29.5642 38.2691C32.3264 41.0314 36.0728 42.5832 39.9792 42.5832V42.5832ZM69.4376 17.3332C69.4376 17.3332 74.172 26.8019 69.4376 38.3748V17.3332ZM84.1668 8.9165C84.1668 8.9165 93.6355 25.9603 84.1668 46.7915V8.9165ZM8.41675 86.3498V88.8748H71.5418V86.3498C71.5418 76.9232 71.5417 72.2098 69.7069 68.6075C68.0931 65.4403 65.518 62.8652 62.3508 61.2513C58.7484 59.4165 54.0351 59.4165 44.6084 59.4165H35.3501C25.9234 59.4165 21.2101 59.4165 17.6077 61.2513C14.4405 62.8652 11.8654 65.4403 10.2516 68.6075C8.41675 72.2098 8.41675 76.9232 8.41675 86.3498Z" stroke="white" stroke-width="7" stroke-linecap="round" stroke-linejoin="round"/>
</svg>
